# Blender 3.3.1
# www.blender.org
mtllib untitled.mtl
o Cone
v 0.946910 1.003892 0.000000
v -0.000000 0.000000 -1.000000
v 1.575784 -0.982625 0.000000
v -0.000000 0.000000 1.000000
v 3.433276 0.645065 0.000000
v 2.296584 -3.347640 -0.000000
v -0.906431 1.004923 0.000000
v 0.021502 3.315207 0.000000
v -1.576876 -0.980871 0.000000
v -3.432556 0.648884 0.000000
v -0.001192 -2.143357 -0.000000
v -2.300306 -3.345083 -0.000000
vn 0.5793 0.2319 -0.7814
vn 0.5793 0.2319 0.7814
vn 0.3231 -0.3688 -0.8715
vn 0.3231 -0.3688 0.8715
vn 0.0947 0.6563 0.7485
vn 0.0947 0.6563 -0.7485
vn -0.2163 -0.4127 -0.8848
vn -0.2163 -0.4127 0.8848
vn 0.6061 0.1847 0.7736
vn 0.6061 0.1847 -0.7736
vn -0.5895 0.2368 -0.7723
vn -0.5895 0.2368 0.7723
vn -0.3235 -0.3684 -0.8715
vn -0.3235 -0.3684 0.8715
vn -0.0929 0.6590 0.7464
vn -0.0929 0.6590 -0.7464
vn 0.2158 -0.4129 -0.8848
vn 0.2158 -0.4129 0.8848
vn -0.6059 0.1854 0.7736
vn -0.6059 0.1854 -0.7736
vt 0.490000 0.250000
vt 0.010000 0.250000
vt 0.250000 0.490000
vt 0.490000 0.250000
vt 0.010000 0.250000
vt 0.250000 0.010000
vt 0.250000 0.250000
vt 0.250000 0.250000
vt 0.490000 0.250000
vt 0.010000 0.250000
vt 0.250000 0.250000
vt 0.490000 0.250000
vt 0.010000 0.250000
vt 0.250000 0.250000
vt 0.490000 0.250000
vt 0.250000 0.250000
s 1
usemtl Color
f 2/3/1 8/11/1 1/1/1
f 1/1/2 8/11/2 4/6/2
f 2/3/3 5/7/3 3/4/3
f 3/4/4 5/7/4 4/6/4
f 4/6/5 5/7/5 1/2/5
f 1/2/6 5/7/6 2/3/6
f 2/3/7 6/8/7 11/15/7
f 11/15/8 6/8/8 4/6/8
f 4/6/9 6/8/9 3/5/9
f 3/5/10 6/8/10 2/3/10
f 2/3/11 7/9/11 8/11/11
f 7/9/12 4/6/12 8/11/12
f 2/3/13 9/12/13 10/14/13
f 9/12/14 4/6/14 10/14/14
f 4/6/15 7/10/15 10/14/15
f 7/10/16 2/3/16 10/14/16
f 2/3/17 11/15/17 12/16/17
f 11/15/18 4/6/18 12/16/18
f 4/6/19 9/13/19 12/16/19
f 9/13/20 2/3/20 12/16/20
